<?xml version="1.0" encoding="UTF-8"?><svg id="Camada_2" xmlns="http://www.w3.org/2000/svg" xmlns:xlink="http://www.w3.org/1999/xlink" viewBox="0 0 440.37 101.69"><defs><style>.cls-1{fill:#cd1c40;}.cls-1,.cls-2{stroke-width:0px;}.cls-2{fill:url(#Gradiente_sem_nome_2);}</style><linearGradient id="Gradiente_sem_nome_2" x1="17.3" y1="539.14" x2="70.71" y2="446.64" gradientTransform="translate(0 -445.89)" gradientUnits="userSpaceOnUse"><stop offset=".28" stop-color="#cd1c40"/><stop offset=".9" stop-color="#ec802f"/></linearGradient></defs><g id="Camada_1-2"><path class="cls-2" d="M28.94,31.51L69.64,1.36c.59-.44.28-1.36-.44-1.36h-33.38c-3.85,0-7.58,1.54-10.3,4.26L4.26,25.5c-2.72,2.75-4.26,6.45-4.26,10.32v30.04c0,3.88,1.54,7.58,4.26,10.32l21.24,21.24c2.75,2.72,6.47,4.26,10.32,4.26h28.89c.8,0,1.05-1.08.31-1.44L7.63,73.18c-2.39-1.13-3.93-3.54-3.93-6.19v-14.41c0-1.52.72-2.93,1.93-3.83l8.27-6.14v-11.14h15.05v.03Z"/><path class="cls-1" d="M68.51,43.11l-3.93,10.68h7.68l-3.75-10.68ZM35.49,43.55c0-3.42-2.34-3.9-4.8-3.9h-4.96v8.06h4.78c2.52-.03,4.98-.36,4.98-4.16h0Z"/><path class="cls-1" d="M235.86,64.09c-9.89,0-15.79,5.19-15.79,13.89s5.91,13.84,15.79,13.84,15.84-5.16,15.84-13.84-5.93-13.89-15.84-13.89h0ZM235.86,84.12c-2.9,0-4.85-2.49-4.85-6.21s1.95-6.24,4.85-6.24,4.85,2.47,4.85,6.24-1.85,6.21-4.85,6.21h0ZM360.63,87.33c0,2.13,1.69,3.85,3.8,3.85h7.4v-26.42h-11.2v22.57h0ZM360.63,56.08h11.2v5.47h-11.2v-5.47ZM392.09,64.09c-9.89,0-15.79,5.19-15.79,13.89s5.91,13.84,15.79,13.84,15.84-5.16,15.84-13.84-5.93-13.89-15.84-13.89h0ZM392.09,84.12c-2.9,0-4.85-2.49-4.85-6.21s1.95-6.24,4.85-6.24,4.85,2.47,4.85,6.24c.03,3.85-1.85,6.21-4.85,6.21h0ZM182.65,22.16c-9.89,0-15.79,5.19-15.79,13.89s5.91,13.84,15.79,13.84,15.84-5.16,15.84-13.84-5.91-13.89-15.84-13.89h0ZM182.65,42.22c-2.9,0-4.85-2.49-4.85-6.21s1.95-6.24,4.85-6.24,4.85,2.47,4.85,6.24c.03,3.83-1.85,6.21-4.85,6.21ZM339.14,42.5c-1.21.03-6.21.28-10.63.28s-6.14-.46-7.04-3.39h17.92c.46,0,.85-.39.85-.85v-2.05c0-9.09-4.83-14.2-14.07-14.33-10.32-.13-15.15,5.29-15.15,13.46,0,8.96,4.72,14.33,16,14.33,8.06,0,11.71-3.29,12.43-7.06,0-.15-.15-.39-.31-.39h0ZM326.22,28.3c2.98,0,4.31,2.44,4.31,5.47h-9.19c0-3.06,1.03-5.47,4.88-5.47h0ZM355.29,14.17h-7.29c-2.11,0-3.8,1.72-3.8,3.85v31.23h11.09V14.17h0ZM214.39,49.69c4.37.41,9.27-.49,11.14-.87.46-.1.77-.49.77-.98v-6.45s-2.05.23-6.93.23c-4.21,0-6.86-2.18-6.86-5.7s2.47-5.73,6.45-5.73c4.6,0,7.32.56,7.32.56v-6.52c0-.46-.31-.87-.77-.98-1.85-.41-6.7-1.34-10.53-1.1-8.22.49-13.33,5.29-13.33,13.82s4.83,12.99,12.74,13.71h0ZM324.79,64.66v3.42c-1.59-2.44-4.03-4.06-7.68-4.06-8.37,0-13.1,5.19-13.1,13.84v.1c0,8.65,4.72,13.84,13.1,13.84,3.67,0,6.09-1.62,7.68-4.06v.59c0,1.57,1.26,2.85,2.8,2.85h7.76v-26.53h-10.55ZM319.91,84.12c-2.9,0-4.85-2.49-4.85-6.21s1.95-6.21,4.85-6.21,4.85,2.39,4.85,6.21c.03,3.83-1.85,6.21-4.85,6.21ZM299.06,22.83l-3.13,17.28-3.49-17.28h-12.61l-3.49,17.28-3.13-17.28h-10.5l-10.94-.08c-1.64,0-3.24,1-4.11,2.59l-6.21,9.04V14.07h-6.78c-2.11,0-3.8,1.72-3.8,3.85v31.23h10.58v-13.15l7.24,10.55c.87,1.59,2.47,2.59,4.11,2.59l10.96.08-10.71-14.12,9.66-12.27,6.32,26.4h11.81c1.31,0,2.41-.95,2.64-2.29l2.26-15.66h.87l2.26,15.66c.23,1.31,1.34,2.29,2.64,2.29h11.81l6.32-26.42-10.58.03h0ZM185.3,76.19c0,4.52-1.44,6.83-4.31,6.83-1.77,0-3.6-.59-3.6-4.96v-13.3h-10.58v15.07c0,7.6,3.8,11.76,10.68,11.76,3.47,0,6.45-1.23,8.63-3.49v.21c0,1.57,1.26,2.85,2.8,2.85h6.96v-26.4h-10.58v11.43h0ZM290.71,64.15c-3.67,0-6.86,1.57-9.06,4.47-1.82-2.88-4.83-4.47-8.65-4.47-3.21,0-6.09,1.23-8.22,3.47v-2.85h-9.66v26.42h10.48v-12.74c0-3.42,1.54-5.62,3.95-5.62,1.72,0,3.29.59,3.29,4.8v13.56h10.53v-12.74c0-3.47,1.49-5.62,3.9-5.62,1.72,0,3.29.59,3.29,4.8v13.56h10.48v-15.33c0-7.55-3.67-11.71-10.32-11.71ZM429.74,64.09c-3.47,0-6.45,1.23-8.63,3.52v-2.85h-9.76v26.42h10.58v-12.74c0-3.49,1.69-5.78,4.31-5.78,1.77,0,3.6.59,3.6,4.96v13.56h10.53v-15.33c0-7.6-3.77-11.76-10.63-11.76h0ZM350.39,56.08h-10.58v31.23c0,2.13,1.69,3.85,3.8,3.85h6.78v-18.64h6.39v-7.78h-6.39v-8.65h0ZM371.7,14.17h-7.29c-2.11,0-3.8,1.72-3.8,3.85v31.23h11.09V14.17h0ZM141.44,56.08c-1.13,0-2.16.69-2.57,1.75l-13.33,33.36h11.07l2.47-6.63h12.74l1.36,3.83h0c.74,1.67,2.39,2.77,4.16,2.77h8.68l-14.02-35.1-10.55.03h0ZM141.93,76.73l3.65-9.91,3.49,9.91h-7.14ZM211.85,56.11h-11.22v31.23c0,2.13,1.69,3.85,3.8,3.85h7.42v-18.64h6.39v-7.78h-6.39v-8.65h0ZM161.75,35.74c-1.13-1.44-2.64-2.49-4.93-2.9v-.1c4.9-.59,7.83-3.93,7.83-9.32,0-6.75-4.83-9.37-12.66-9.37h-18.95v35.15h11.2v-12.79h3.08c1.54,0,3.11.26,3.54,1.82l3.16,9.19c.18,1.03,1.05,1.77,2.05,1.77h10.35l-3.88-11.74c-.13-.64-.41-1.21-.8-1.72h0ZM148.83,29.07h-4.42v-7.45h4.6c2.29,0,4.47.46,4.47,3.62-.03,3.52-2.31,3.83-4.65,3.83h0Z"/><path class="cls-1" d="M97.99,26.09l-19.77-19.77c-1.1-1.1-2.85-1.26-4.16-.36l-38.06,25.63c7.22.46,11.58,3.36,11.58,10.04,0,5.8-3.13,9.42-8.45,10.07v.1c2.47.46,4.11,1.59,5.32,3.13.44.54.72,1.18.87,1.82l3,9.12,12.94-32.41c.46-1.13,1.57-1.87,2.77-1.87h11.38l15.12,37.85h-9.35c-1.9,0-3.67-1.21-4.47-3h0l-1.46-4.13h-13.74l-2.67,7.14h-20.52c-1.1,0-2.03-.8-2.21-1.93l-3.42-9.91c-.46-1.69-2.16-1.98-3.83-1.98h-3.31v13.79h-11.68v-22.96l-6.98,4.7c-.64.44-1,1.16-1,1.93v14.61c0,.95.56,1.8,1.41,2.16l65.87,27.58c1.23.54,2.64.26,3.6-.67l21.21-21.13c2.39-2.36,3.72-5.6,3.72-8.96v-31.64c0-3.36-1.34-6.57-3.72-8.94h0Z"/></g></svg>